<svg xmlns="http://www.w3.org/2000/svg" width="1129" height="1024" viewBox="0 0 1129 1024" fill="none"><path d="M218.077 965.46C188.236 1001.04 153.802 1014.82 119.369 1014.82C52.7977 1014.82 0 966.611 0 903.483C0 841.5 50.5022 792.149 115.925 792.149C150.359 792.149 184.792 805.922 214.634 841.5L171.019 872.494C154.95 849.537 136.586 840.354 115.925 840.354C81.4924 840.354 53.9455 867.899 53.9455 902.337C53.9455 936.769 83.788 964.314 118.221 964.314C138.881 964.314 158.393 955.131 174.462 934.471L218.077 965.46Z" fill="#228800"></path><path d="M297.275 706.064H242.181V1010.23H297.275V706.064Z" fill="#228800"></path><path d="M443.042 967.757C477.475 967.757 509.613 940.212 509.613 903.483C509.613 867.899 477.475 839.208 443.042 839.208C408.609 839.208 376.471 866.753 376.471 903.483C376.471 940.212 407.461 967.757 443.042 967.757ZM443.042 793.295C509.613 793.295 561.262 841.505 561.262 904.629C561.262 966.612 508.465 1015.97 443.042 1015.97C376.471 1015.97 323.673 967.757 323.673 904.629C323.673 841.505 376.471 793.295 443.042 793.295Z" fill="#228800"></path><path d="M553.23 797.884H617.505L669.153 911.515L726.541 797.884H786.227L669.153 1024L553.23 797.884Z" fill="#228800"></path><path d="M942.327 874.786C934.29 855.278 915.928 840.354 890.674 840.354C866.572 840.354 845.912 854.127 835.583 874.786H942.327ZM976.759 986.119C956.1 1004.49 926.257 1014.82 895.269 1014.82C828.696 1014.82 775.897 966.611 775.897 903.483C775.897 841.5 824.102 792.149 890.674 792.149C957.246 792.149 999.716 840.354 999.716 903.483V919.553H832.14C840.172 947.098 866.572 967.757 896.414 967.757C914.776 967.757 930.846 962.017 944.619 947.098L976.759 986.119Z" fill="#228800"></path><path d="M1027.26 890.856C1027.26 840.354 1065.14 797.884 1128.27 797.884V847.24C1101.87 847.24 1082.35 863.31 1082.35 897.742V1010.23H1027.26V890.856Z" fill="#228800"></path><path d="M218.077 965.46C188.236 1001.04 153.802 1014.82 119.369 1014.82C52.7977 1014.82 0 966.611 0 903.483C0 841.5 50.5022 792.149 115.925 792.149C150.359 792.149 184.792 805.922 214.634 841.5L171.019 872.494C154.95 849.537 136.586 840.354 115.925 840.354C81.4924 840.354 53.9455 867.899 53.9455 902.337C53.9455 936.769 83.788 964.314 118.221 964.314C138.881 964.314 158.393 955.131 174.462 934.471L218.077 965.46Z" fill="#228800"></path><path d="M297.275 706.064H242.181V1010.23H297.275V706.064Z" fill="#228800"></path><path d="M443.042 967.757C477.475 967.757 509.613 940.212 509.613 903.483C509.613 867.899 477.475 839.208 443.042 839.208C408.609 839.208 376.471 866.753 376.471 903.483C376.471 940.212 407.461 967.757 443.042 967.757ZM443.042 793.295C509.613 793.295 561.262 841.505 561.262 904.629C561.262 966.612 508.465 1015.97 443.042 1015.97C376.471 1015.97 323.673 967.757 323.673 904.629C323.673 841.505 376.471 793.295 443.042 793.295Z" fill="#228800"></path><path d="M553.23 797.884H617.505L669.153 911.515L726.541 797.884H786.227L669.153 1024L553.23 797.884Z" fill="#228800"></path><path d="M942.327 874.786C934.29 855.278 915.928 840.354 890.674 840.354C866.572 840.354 845.912 854.127 835.583 874.786H942.327ZM976.759 986.119C956.1 1004.49 926.257 1014.82 895.269 1014.82C828.696 1014.82 775.897 966.611 775.897 903.483C775.897 841.5 824.102 792.149 890.674 792.149C957.246 792.149 999.716 840.354 999.716 903.483V919.553H832.14C840.172 947.098 866.572 967.757 896.414 967.757C914.776 967.757 930.846 962.017 944.619 947.098L976.759 986.119Z" fill="#228800"></path><path d="M1027.26 890.856C1027.26 840.354 1065.14 797.884 1128.27 797.884V847.24C1101.87 847.24 1082.35 863.31 1082.35 897.742V1010.23H1027.26V890.856Z" fill="#228800"></path><path d="M541.81 136.483C541.81 61.1601 480.675 0 405.298 0C329.938 0 268.845 61.0821 268.845 136.405C268.845 211.727 329.937 272.966 405.332 272.966H541.809L541.81 136.483Z" fill="#228800"></path><path d="M580.098 136.483C580.098 61.1603 641.233 0.000244141 716.61 0.000244141C791.97 0.000244141 853.063 61.0824 853.063 136.405C853.063 211.727 791.97 272.966 716.575 272.966L580.098 272.966L580.098 136.483Z" fill="#228800"></path><path d="M580.098 447.736C580.098 523.133 641.215 584.219 716.622 584.219C791.946 584.219 853.063 523.178 853.063 447.781C853.063 372.456 791.947 311.253 716.575 311.253L580.098 311.253V447.736Z" fill="#228800"></path><path d="M541.81 447.736C541.81 523.133 480.693 584.219 405.286 584.219C329.962 584.219 268.844 523.178 268.844 447.781C268.844 372.456 329.961 311.253 405.332 311.253H541.81V447.736ZM405.286 545.732C459.454 545.732 503.523 501.792 503.523 447.781V349.561H405.411C351.219 349.561 307.127 393.792 307.127 447.781C307.127 501.792 351.159 545.732 405.286 545.732Z" fill="#228800"></path></svg>